<?xml version="1.0" encoding="utf-8"?>
<svg viewBox="0 0 500 500" xmlns="http://www.w3.org/2000/svg">
  <path id="Unnamed" stroke-width="1" d="M -147.144 279.934 C -147.144 279.934 224.745 279.934 224.745 279.934 C 224.745 279.934 223.704 251.193 200.499 249.05 C 177.292 246.908 177.292 272.08 158.772 264.582 C 140.252 257.083 141.591 232.984 119.277 230.842 C 96.964 228.7 90.493 255.477 77.106 257.083 C 63.718 258.69 55.238 240.482 36.049 243.695 C 16.859 246.908 11.281 215.312 -3.668 223.879 C -18.619 232.448 -16.61 251.729 -34.685 256.013 C -52.757 260.297 -63.023 234.055 -79.089 237.268 C -95.154 240.482 -98.5 256.013 -119.92 253.87 C -141.341 251.729 -147.144 279.934 -147.144 279.934 Z" style="fill: rgb(255, 255, 255); transform-origin: 38.8005px 251.167px;" transform="matrix(0, -1, 1, 0, 0.000008279582, 0.000015764947)"/>
  <path id="Unnamed copy" stroke-width="1" d="M 280.223 283.411 C 280.223 283.411 652.032 283.411 652.032 283.411 C 652.032 283.411 649.651 263.036 626.451 259.863 C 603.251 256.686 605.481 241.607 586.964 230.494 C 568.45 219.378 565.549 254.305 543.24 251.13 C 520.931 247.953 512.901 219.378 499.516 221.761 C 486.131 224.141 483.9 247.16 464.715 251.922 C 445.53 256.686 441.514 243.19 424.113 232.874 C 406.712 222.553 403.812 220.968 385.519 220.172 C 367.45 226.524 365.441 243.19 349.38 247.953 C 333.318 252.72 320.601 263.829 299.185 260.656 C 277.769 257.483 280.223 283.411 280.223 283.411 Z" style="fill: rgb(255, 255, 255); transform-origin: 466.085px 251.792px;" transform="matrix(0, 1, -1, 0, -0.000004561598, -0.000033710798)"/>
  <path id="Unnamed copy #1" stroke-width="1" d="M 66.916 495.543 C 66.916 495.543 435.553 495.543 435.553 495.543 C 435.553 495.543 434.743 452.915 411.739 450.853 C 388.737 448.79 390.063 469.417 375.465 471.479 C 360.867 473.542 365.733 458.588 342.288 448.275 C 318.843 437.962 318.4 469.932 305.13 471.479 C 291.859 473.026 283.233 435.384 264.21 438.478 C 245.189 441.571 245.631 453.946 228.379 447.244 C 211.126 440.539 206.703 464.26 188.567 463.744 C 170.65 467.869 153.62 444.665 137.695 447.759 C 121.77 450.853 123.317 465.291 102.085 463.229 C 80.85 461.166 66.916 495.543 66.916 495.543 Z" style="fill: rgb(255, 255, 255); transform-origin: 251.235px 466.92px;" transform="matrix(-1, 0, 0, -1, -0.000023030207, 0.000013915303)"/>
  <path id="Unnamed copy #2" stroke-width="1" d="M 66.825 11.203 C 66.825 11.203 434.617 11.203 434.617 11.203 C 434.617 11.203 428.292 27.635 405.341 30.098 C 382.392 32.564 394.97 59.677 380.404 57.211 C 365.84 54.748 361.428 45.504 338.034 57.828 C 314.643 70.153 328.326 33.182 315.085 31.333 C 301.844 29.484 271.832 49.201 252.855 45.504 C 244.433 43.865 240.099 69.487 224.388 65.224 C 204.692 59.879 189.165 31.188 179.59 35.645 C 162.378 43.655 165.687 65.224 147.592 65.838 C 129.718 60.909 132.145 37.494 116.256 33.796 C 100.367 30.098 97.057 52.899 85.803 58.446 C 74.549 63.99 66.825 11.203 66.825 11.203 Z" style="fill: rgb(255, 255, 255); transform-origin: 250.72px 38.52px;" transform="matrix(-1, 0, 0, -1, -0.00002304554, -0.000006481409)"/>
  <path style="fill: rgb(255, 255, 255); transform-origin: 248.566px 261.529px;" d="M 56.983 59.39 C 56.951 59.387 95.887 41.064 105.438 58.715 C 114.989 76.366 365.513 67.729 365.513 67.729 C 365.513 67.729 400.29 42.627 400.434 42.454 C 409.399 31.69 457.959 62.226 455.61 111.399 C 455.61 111.399 438.433 289.738 436.053 289.943 C 433.673 290.148 430.671 437.834 458.505 440.713 C 457.679 447.525 442.944 461.752 434.761 468.732 C 430.076 473.872 390.807 477.434 386.143 476.031 L 69.411 482.762 C 66.829 472.892 62.663 461.443 59.913 460.548 C 61.022 460.548 48.341 452.486 45.979 452.486 L 45.94 251.181 C 45.94 251.181 38.869 171.663 38.628 119.795 C 38.526 97.931 43.159 80.98 44.362 76.97 C 48.419 63.448 57.208 59.166 56.983 59.39 Z" transform="matrix(-1, 0, 0, -1, 0.000007407835, 0.000007794184)"/>
</svg>