<?xml version="1.0" encoding="utf-8"?>
<svg viewBox="0 0 500 500" xmlns="http://www.w3.org/2000/svg">
  <path id="Unnamed" stroke-width="1" d="M 65.719 497.208 C 65.719 497.208 437.608 497.208 437.608 497.208 C 437.608 497.208 436.567 468.467 413.362 466.324 C 390.155 464.182 390.155 489.354 371.635 481.856 C 353.115 474.357 354.454 450.258 332.14 448.116 C 309.827 445.974 303.356 472.751 289.969 474.357 C 276.581 475.964 268.101 457.756 248.912 460.969 C 229.722 464.182 224.144 432.586 209.195 441.153 C 194.244 449.722 196.253 469.003 178.178 473.287 C 160.106 477.571 149.84 451.329 133.774 454.542 C 117.709 457.756 114.363 473.287 92.943 471.144 C 71.522 469.003 65.719 497.208 65.719 497.208 Z" style="fill: #d1d1d1; transform-origin: 251.664px 468.441px;" transform="matrix(-1, 0, 0, -1, -0.000023017421, -0.000108109678)"/>
  <path id="Unnamed copy" stroke-width="1" d="M 66.426 72.776 C 66.426 72.776 438.235 72.776 438.235 72.776 C 438.235 72.776 435.854 52.401 412.654 49.228 C 389.454 46.051 391.684 30.972 373.167 19.859 C 354.653 8.743 351.752 43.67 329.443 40.495 C 307.134 37.318 299.104 8.743 285.719 11.126 C 272.334 13.506 270.103 36.525 250.918 41.287 C 231.733 46.051 227.717 32.555 210.316 22.239 C 192.915 11.918 190.015 10.333 171.722 9.537 C 153.653 15.889 151.644 32.555 135.583 37.318 C 119.521 42.085 106.804 53.194 85.388 50.021 C 63.972 46.848 66.426 72.776 66.426 72.776 Z" style="fill: #d1d1d1; transform-origin: 252.288px 41.1565px;"/>
  <path id="Unnamed copy #1" stroke-width="1" d="M 283.098 284.63 C 283.098 284.63 651.735 284.63 651.735 284.63 C 651.735 284.63 650.925 242.002 627.921 239.94 C 604.919 237.877 606.245 258.504 591.647 260.566 C 577.049 262.629 581.915 247.675 558.47 237.362 C 535.025 227.049 534.582 259.019 521.312 260.566 C 508.041 262.113 499.415 224.471 480.392 227.565 C 461.371 230.658 461.813 243.033 444.561 236.331 C 427.308 229.626 422.885 253.347 404.749 252.831 C 386.832 256.956 369.802 233.752 353.877 236.846 C 337.952 239.94 339.499 254.378 318.267 252.316 C 297.032 250.253 283.098 284.63 283.098 284.63 Z" style="fill: #d1d1d1; transform-origin: 467.416px 256.007px;" transform="matrix(0, 1, -1, 0, -0.000019737727, -0.000064185402)"/>
  <path id="Unnamed copy #2" stroke-width="1" d="M -144.879 229.204 C -144.879 229.204 222.913 229.204 222.913 229.204 C 222.913 229.204 216.588 245.636 193.637 248.099 C 170.688 250.565 183.266 277.678 168.7 275.212 C 154.136 272.749 149.724 263.505 126.33 275.829 C 102.939 288.154 116.622 251.183 103.381 249.334 C 90.14 247.485 60.128 267.202 41.151 263.505 C 32.729 261.866 28.395 287.488 12.684 283.225 C -7.012 277.88 -22.539 249.189 -32.114 253.646 C -49.326 261.656 -46.017 283.225 -64.112 283.839 C -81.986 278.91 -79.559 255.495 -95.448 251.797 C -111.337 248.099 -114.647 270.9 -125.901 276.447 C -137.155 281.991 -144.879 229.204 -144.879 229.204 Z" style="fill: #d1d1d1; transform-origin: 39.016px 256.521px;" transform="matrix(0, 1, -1, 0, 0.000023477331, 0.000014685169)"/>
  <path style="fill: #d1d1d1; transform-origin: 262.026px 258.675px;" d="M 70.443 56.536 C 70.411 56.533 109.347 38.21 118.898 55.861 C 128.449 73.512 378.973 64.875 378.973 64.875 C 378.973 64.875 413.75 39.773 413.894 39.6 C 422.859 28.836 471.419 59.372 469.07 108.545 C 469.07 108.545 451.893 286.884 449.513 287.089 C 447.133 287.294 444.131 434.98 471.965 437.859 C 471.139 444.671 456.404 458.898 448.221 465.878 C 443.536 471.018 404.267 474.58 399.603 473.177 L 82.871 479.908 C 80.289 470.038 76.123 458.589 73.373 457.694 C 74.482 457.694 61.801 449.632 59.439 449.632 L 59.4 248.327 C 59.4 248.327 52.329 168.809 52.088 116.941 C 51.986 95.077 56.619 78.126 57.822 74.116 C 61.879 60.594 70.668 56.312 70.443 56.536 Z" transform="matrix(0, 1, -1, 0, 0.000038276629, -0.000022938107)"/>
</svg>