<?xml version="1.0" encoding="utf-8"?>
<svg viewBox="0 0 500 500" xmlns="http://www.w3.org/2000/svg">
  <path id="Unnamed" stroke-width="1" d="M 282.993 284.345 C 282.993 284.345 654.882 284.345 654.882 284.345 C 654.882 284.345 653.841 255.604 630.636 253.461 C 607.429 251.319 607.429 276.491 588.909 268.993 C 570.389 261.494 571.728 237.395 549.414 235.253 C 527.101 233.111 520.63 259.888 507.243 261.494 C 493.855 263.101 485.375 244.893 466.186 248.106 C 446.996 251.319 441.418 219.723 426.469 228.29 C 411.518 236.859 413.527 256.14 395.452 260.424 C 377.38 264.708 367.114 238.466 351.048 241.679 C 334.983 244.893 331.637 260.424 310.217 258.281 C 288.796 256.14 282.993 284.345 282.993 284.345 Z" style="fill: black; transform-origin: 468.938px 255.578px;" transform="matrix(0, 1, -1, 0, -0.000019721453, 0.000012079488)"/>
  <path id="Unnamed copy" stroke-width="1" d="M -144.209 286.573 C -144.209 286.573 227.6 286.573 227.6 286.573 C 227.6 286.573 225.219 266.198 202.019 263.025 C 178.819 259.848 181.049 244.769 162.532 233.656 C 144.018 222.54 141.117 257.467 118.808 254.292 C 96.499 251.115 88.469 222.54 75.084 224.923 C 61.699 227.303 59.468 250.322 40.283 255.084 C 21.098 259.848 17.082 246.352 -0.319 236.036 C -17.72 225.715 -20.62 224.13 -38.913 223.334 C -56.982 229.686 -58.991 246.352 -75.052 251.115 C -91.114 255.882 -103.831 266.991 -125.247 263.818 C -146.663 260.645 -144.209 286.573 -144.209 286.573 Z" style="fill: black; transform-origin: 41.6528px 254.954px;" transform="matrix(0, -1, 1, 0, -0.000033696006, 0.000004419779)"/>
  <path id="Unnamed copy #1" stroke-width="1" d="M 72.185 68.448 C 72.185 68.448 440.822 68.448 440.822 68.448 C 440.822 68.448 440.012 25.82 417.008 23.758 C 394.006 21.695 395.332 42.322 380.734 44.384 C 366.136 46.447 371.002 31.493 347.557 21.18 C 324.112 10.867 323.669 42.837 310.399 44.384 C 297.128 45.931 288.502 8.289 269.479 11.383 C 250.458 14.476 250.9 26.851 233.648 20.149 C 216.395 13.444 211.972 37.165 193.836 36.649 C 175.919 40.774 158.889 17.57 142.964 20.664 C 127.039 23.758 128.586 38.196 107.354 36.134 C 86.119 34.071 72.185 68.448 72.185 68.448 Z" style="fill: black;" transform="matrix(0.9999999999999999, 0, 0, 0.9999999999999999, -5.684341886080802e-14, 0)"/>
  <path id="Unnamed copy #2" stroke-width="1" d="M 73.122 440.908 C 73.122 440.908 440.914 440.908 440.914 440.908 C 440.914 440.908 434.589 457.34 411.638 459.803 C 388.689 462.269 401.267 489.382 386.701 486.916 C 372.137 484.453 367.725 475.209 344.331 487.533 C 320.94 499.858 334.623 462.887 321.382 461.038 C 308.141 459.189 278.129 478.906 259.152 475.209 C 250.73 473.57 246.396 499.192 230.685 494.929 C 210.989 489.584 195.462 460.893 185.887 465.35 C 168.675 473.36 171.984 494.929 153.889 495.543 C 136.015 490.614 138.442 467.199 122.553 463.501 C 106.664 459.803 103.354 482.604 92.1 488.151 C 80.846 493.695 73.122 440.908 73.122 440.908 Z" style="fill: black; transform-origin: 257.017px 468.225px;"/>
  <path style="fill: black;" d="M 67.589 43.076 C 67.557 43.073 106.493 24.75 116.044 42.401 C 125.595 60.052 376.119 51.415 376.119 51.415 C 376.119 51.415 410.896 26.313 411.04 26.14 C 420.005 15.376 468.565 45.912 466.216 95.085 C 466.216 95.085 449.039 273.424 446.659 273.629 C 444.279 273.834 441.277 421.52 469.111 424.399 C 468.285 431.211 453.55 445.438 445.367 452.418 C 440.682 457.558 401.413 461.12 396.749 459.717 L 80.017 466.448 C 77.435 456.578 73.269 445.129 70.519 444.234 C 71.628 444.234 58.947 436.172 56.585 436.172 L 56.546 234.867 C 56.546 234.867 49.475 155.349 49.234 103.481 C 49.132 81.617 53.765 64.666 54.968 60.656 C 59.025 47.134 67.814 42.852 67.589 43.076 Z" transform="matrix(0.9999999999999999, 0, 0, 0.9999999999999999, -5.684341886080802e-14, 0)"/>
</svg>