<?xml version="1.0" encoding="utf-8"?>
<svg viewBox="0 0 500 500" xmlns="http://www.w3.org/2000/svg">
  <path id="Unnamed" stroke-width="1" d="M 70.13 67.071 C 70.13 67.071 442.019 67.071 442.019 67.071 C 442.019 67.071 440.978 38.33 417.773 36.187 C 394.566 34.045 394.566 59.217 376.046 51.719 C 357.526 44.22 358.865 20.121 336.551 17.979 C 314.238 15.837 307.767 42.614 294.38 44.22 C 280.992 45.827 272.512 27.619 253.323 30.832 C 234.133 34.045 228.555 2.449 213.606 11.016 C 198.655 19.585 200.664 38.866 182.589 43.15 C 164.517 47.434 154.251 21.192 138.185 24.405 C 122.12 27.619 118.774 43.15 97.354 41.007 C 75.933 38.866 70.13 67.071 70.13 67.071 Z" style="fill: rgb(255, 255, 255); transform-origin: 256.075px 38.3042px;"/>
  <path id="Unnamed copy" stroke-width="1" d="M 69.588 497.208 C 69.588 497.208 441.397 497.208 441.397 497.208 C 441.397 497.208 439.016 476.833 415.816 473.66 C 392.616 470.483 394.846 455.404 376.329 444.291 C 357.815 433.175 354.914 468.102 332.605 464.927 C 310.296 461.75 302.266 433.175 288.881 435.558 C 275.496 437.938 273.265 460.957 254.08 465.719 C 234.895 470.483 230.879 456.987 213.478 446.671 C 196.077 436.35 193.177 434.765 174.884 433.969 C 156.815 440.321 154.806 456.987 138.745 461.75 C 122.683 466.517 109.966 477.626 88.55 474.453 C 67.134 471.28 69.588 497.208 69.588 497.208 Z" style="fill: rgb(255, 255, 255); transform-origin: 255.45px 465.589px;" transform="matrix(-1, 0, 0, -1, -0.000053422158, -0.000108194695)"/>
  <path id="Unnamed copy #1" stroke-width="1" d="M -143.997 279.361 C -143.997 279.361 224.64 279.361 224.64 279.361 C 224.64 279.361 223.83 236.733 200.826 234.671 C 177.824 232.608 179.15 253.235 164.552 255.297 C 149.954 257.36 154.82 242.406 131.375 232.093 C 107.93 221.78 107.487 253.75 94.217 255.297 C 80.946 256.844 72.32 219.202 53.297 222.296 C 34.276 225.389 34.718 237.764 17.466 231.062 C 0.213 224.357 -4.21 248.078 -22.346 247.562 C -40.263 251.687 -57.293 228.483 -73.218 231.577 C -89.143 234.671 -87.596 249.109 -108.828 247.047 C -130.063 244.984 -143.997 279.361 -143.997 279.361 Z" style="fill: rgb(255, 255, 255); transform-origin: 40.3215px 250.738px;" transform="matrix(0, -1, 1, 0, -0.000033653029, 0.000004337125)"/>
  <path id="Unnamed copy #2" stroke-width="1" d="M 284.827 222.907 C 284.827 222.907 652.619 222.907 652.619 222.907 C 652.619 222.907 646.294 239.339 623.343 241.802 C 600.394 244.268 612.972 271.381 598.406 268.915 C 583.842 266.452 579.43 257.208 556.036 269.532 C 532.645 281.857 546.328 244.886 533.087 243.037 C 519.846 241.188 489.834 260.905 470.857 257.208 C 462.435 255.569 458.101 281.191 442.39 276.928 C 422.694 271.583 407.167 242.892 397.592 247.349 C 380.38 255.359 383.689 276.928 365.594 277.542 C 347.72 272.613 350.147 249.198 334.258 245.5 C 318.369 241.802 315.059 264.603 303.805 270.15 C 292.551 275.694 284.827 222.907 284.827 222.907 Z" style="fill: rgb(255, 255, 255); transform-origin: 468.722px 250.224px;" transform="matrix(0, -1, 1, 0, -0.000012002915, 0.000041230709)"/>
  <path style="fill: rgb(255, 255, 255); transform-origin: 245.712px 248.069px;" d="M 54.129 45.93 C 54.097 45.927 93.033 27.604 102.584 45.255 C 112.135 62.906 362.659 54.269 362.659 54.269 C 362.659 54.269 397.436 29.167 397.58 28.994 C 406.545 18.23 455.105 48.766 452.756 97.939 C 452.756 97.939 435.579 276.278 433.199 276.483 C 430.819 276.688 427.817 424.374 455.651 427.253 C 454.825 434.065 440.09 448.292 431.907 455.272 C 427.222 460.412 387.953 463.974 383.289 462.571 L 66.557 469.302 C 63.975 459.432 59.809 447.983 57.059 447.088 C 58.168 447.088 45.487 439.026 43.125 439.026 L 43.086 237.721 C 43.086 237.721 36.015 158.203 35.774 106.335 C 35.672 84.471 40.305 67.52 41.508 63.51 C 45.565 49.988 54.354 45.706 54.129 45.93 Z" transform="matrix(0, -1, 1, 0, -0.000013386574, -0.000007900877)"/>
</svg>