<?xml version="1.0" standalone="no"?>
<!DOCTYPE svg PUBLIC "-//W3C//DTD SVG 20010904//EN"
 "http://www.w3.org/TR/2001/REC-SVG-20010904/DTD/svg10.dtd">
<svg version="1.0" xmlns="http://www.w3.org/2000/svg"
 width="1720.000000pt" height="1720.000000pt" viewBox="0 0 1720.000000 1720.000000"
 preserveAspectRatio="xMidYMid meet">

<g transform="translate(0.000000,1720.000000) scale(0.100000,-0.100000)"
fill="#000000" stroke="none">
<path d="M8065 17019 c-1753 -108 -3403 -747 -4765 -1843 -446 -359 -917 -830
-1276 -1276 -790 -981 -1360 -2148 -1638 -3355 -151 -655 -216 -1232 -216
-1915 0 -326 9 -528 36 -810 154 -1627 787 -3180 1818 -4460 359 -446 830
-917 1276 -1276 1281 -1031 2833 -1664 4460 -1818 519 -50 1101 -50 1620 0
1627 154 3179 787 4460 1818 446 359 917 830 1276 1276 1031 1280 1665 2835
1818 4460 50 527 50 1093 0 1620 -153 1625 -787 3180 -1818 4460 -359 446
-830 917 -1276 1276 -1281 1031 -2833 1664 -4460 1818 -91 9 -239 20 -330 26
-190 11 -794 11 -985 -1z m3509 -6781 c-978 -980 -2055 -2056 -2392 -2392
l-613 -610 -747 744 c-411 410 -1144 1141 -1630 1625 -486 484 -1226 1225
-1644 1648 l-760 767 4783 0 4782 0 -1779 -1782z m-6616 -91 l1522 -1522
-1525 -1525 -1525 -1525 0 3048 c0 1676 1 3047 3 3047 1 0 687 -685 1525
-1523z m8752 -1509 l0 -3033 -1517 1517 -1518 1518 1515 1515 c833 833 1516
1515 1517 1515 2 0 3 -1365 3 -3032z m-1860 -1873 l1525 -1525 -4790 0 -4790
0 1517 1517 1518 1518 870 -870 870 -870 878 878 c482 482 877 877 877 877 0
0 686 -686 1525 -1525z"/>
</g>
</svg>
