<?xml version="1.0" standalone="no"?>
<!DOCTYPE svg PUBLIC "-//W3C//DTD SVG 20010904//EN"
 "http://www.w3.org/TR/2001/REC-SVG-20010904/DTD/svg10.dtd">
<svg version="1.0" xmlns="http://www.w3.org/2000/svg"
 width="730.000000pt" height="730.000000pt" viewBox="0 0 730.000000 730.000000"
 preserveAspectRatio="xMidYMid meet">

<g transform="translate(0.000000,730.000000) scale(0.100000,-0.100000)"
fill="#000000" stroke="none">
<path d="M3450 7224 c-19 -2 -84 -9 -145 -14 -400 -39 -843 -169 -1217 -356
-971 -487 -1675 -1406 -1888 -2464 -57 -282 -65 -367 -64 -715 0 -251 3 -347
17 -445 95 -672 345 -1262 753 -1775 113 -141 408 -436 549 -549 296 -235 654
-437 1005 -566 100 -36 123 -41 172 -37 74 6 125 37 149 91 17 37 19 71 19
387 0 190 -2 348 -5 351 -3 2 -42 -2 -87 -10 -56 -10 -154 -15 -303 -16 -207
0 -226 1 -317 26 -139 38 -246 97 -334 184 -67 66 -79 84 -154 240 -133 277
-245 426 -381 512 -76 48 -149 122 -149 151 0 33 38 59 98 67 228 28 427 -90
612 -362 92 -135 165 -214 252 -271 202 -132 447 -146 721 -43 32 12 60 27 61
33 2 7 11 44 19 82 31 139 92 262 170 344 l37 40 -47 6 c-552 74 -891 218
-1154 492 -252 262 -382 611 -408 1093 -19 342 25 581 151 822 44 86 130 212
178 263 l29 30 -19 57 c-39 113 -53 232 -47 398 6 164 20 246 68 397 29 90 31
92 65 99 58 11 212 -15 335 -56 149 -49 288 -116 467 -225 l143 -86 107 25
c267 62 491 88 777 88 294 0 495 -22 756 -83 l136 -32 114 72 c153 97 370 204
501 246 118 38 272 62 329 51 35 -6 37 -9 63 -88 87 -263 99 -548 32 -780
l-24 -82 43 -50 c102 -121 199 -295 250 -452 99 -302 85 -806 -32 -1169 -188
-581 -617 -899 -1372 -1015 -69 -11 -130 -20 -134 -20 -4 0 15 -27 43 -60 62
-75 122 -198 151 -310 22 -82 23 -106 28 -705 6 -599 7 -621 26 -655 31 -53
95 -82 170 -77 157 10 674 262 962 468 244 175 555 467 722 679 450 568 705
1207 772 1933 15 164 6 590 -16 747 -110 797 -456 1500 -1010 2055 -574 576
-1296 924 -2125 1025 -87 11 -557 21 -620 14z"/>
</g>
</svg>
