<?xml version="1.0" standalone="no"?>
<!DOCTYPE svg PUBLIC "-//W3C//DTD SVG 20010904//EN"
 "http://www.w3.org/TR/2001/REC-SVG-20010904/DTD/svg10.dtd">
<svg version="1.0" xmlns="http://www.w3.org/2000/svg"
 width="512.000000pt" height="512.000000pt" viewBox="0 0 512.000000 512.000000"
 preserveAspectRatio="xMidYMid meet">

<g transform="translate(0.000000,512.000000) scale(0.100000,-0.100000)"
fill="#000000" stroke="none">
<path d="M838 5030 c-94 -16 -279 -83 -298 -108 -8 -11 -124 -87 -131 -85 -3
1 -37 -29 -75 -68 -37 -38 -64 -69 -59 -69 6 0 6 -3 0 -8 -6 -4 -26 -32 -45
-62 -19 -30 -37 -57 -41 -60 -15 -12 -70 -142 -91 -215 l-23 -80 0 -1715 c0
-1635 1 -1718 18 -1780 32 -110 62 -174 140 -291 84 -128 119 -164 227 -235
41 -27 77 -52 80 -56 11 -14 141 -68 217 -90 l78 -23 1715 0 1715 0 78 23 c79
23 195 71 219 91 26 22 129 91 136 91 16 0 111 108 158 180 27 41 52 77 55 80
15 12 70 143 91 215 l23 80 0 1715 0 1715 -23 80 c-21 73 -76 203 -91 215 -4
3 -22 30 -41 60 -19 30 -39 58 -45 62 -5 4 -6 8 -1 8 5 0 -22 31 -60 69 -38
38 -71 69 -74 68 -6 -2 -122 74 -130 85 -10 13 -137 67 -212 90 l-73 23 -1695
1 c-932 1 -1716 -2 -1742 -6z m487 -832 c175 -37 290 -189 288 -379 -1 -167
-107 -306 -270 -355 -75 -22 -211 -23 -280 -1 -86 26 -223 129 -223 167 0 5
-4 10 -9 10 -11 0 -33 59 -25 71 3 5 0 9 -7 9 -6 0 -9 8 -6 20 3 11 1 20 -4
20 -12 0 -12 127 0 134 5 3 7 15 4 26 -3 11 -1 20 4 20 5 0 9 9 10 20 1 11 18
44 37 73 71 107 170 161 326 180 33 4 94 -2 155 -15z m2222 -1029 c43 -6 110
-22 148 -35 39 -14 78 -26 88 -27 9 -1 17 -5 17 -10 0 -4 5 -5 10 -2 6 3 10 1
10 -5 0 -6 5 -8 10 -5 6 3 10 2 10 -3 0 -6 11 -13 24 -16 43 -11 174 -145 240
-246 83 -127 116 -212 152 -400 14 -73 17 -194 21 -837 l5 -753 -391 0 -391 0
0 683 c0 391 -5 711 -10 750 -11 72 -55 180 -95 233 -32 41 -134 93 -202 101
-62 7 -162 -11 -217 -39 -77 -39 -190 -166 -201 -227 -2 -9 -4 -16 -5 -16 -11
0 -15 -149 -19 -760 l-6 -720 -387 -3 -388 -2 0 1150 0 1150 390 0 391 0 -3
-165 c-2 -90 0 -161 3 -157 3 4 29 39 58 79 163 224 427 325 738 282z m-1954
-596 c4 -306 7 -823 7 -1150 l0 -593 -385 0 -385 0 0 1150 0 1150 378 0 379 0
6 -557z"/>
</g>
</svg>
