<?xml version="1.0" encoding="UTF-8" standalone="no"?>
<!DOCTYPE svg PUBLIC "-//W3C//DTD SVG 20010904//EN"
              "http://www.w3.org/TR/2001/REC-SVG-20010904/DTD/svg10.dtd">

<svg xmlns="http://www.w3.org/2000/svg"
     width="8.33333in" height="3.33333in"
     viewBox="0 0 2500 1000">
  <path id="Unnamed copy"
        fill="none" stroke="black" stroke-width="1"
        d="M 4.50,934.00
           C 4.50,934.00 2504.50,934.00 2504.50,934.00
             2504.50,934.00 2488.50,895.50 2332.50,889.50
             2176.50,883.50 2191.50,855.00 2067.00,834.00
             1942.50,813.00 1923.00,879.00 1773.00,873.00
             1623.00,867.00 1569.00,813.00 1479.00,817.50
             1389.00,822.00 1374.00,865.50 1245.00,874.50
             1116.00,883.50 1089.00,858.00 972.00,838.50
             855.00,819.00 835.50,816.00 712.50,814.50
             591.00,826.50 577.50,858.00 469.50,867.00
             361.50,876.00 276.00,897.00 132.00,891.00
             -12.00,885.00 4.50,934.00 4.50,934.00 Z" />
</svg>
