<?xml version="1.0" encoding="UTF-8" standalone="no"?>
<!DOCTYPE svg PUBLIC "-//W3C//DTD SVG 20010904//EN"
              "http://www.w3.org/TR/2001/REC-SVG-20010904/DTD/svg10.dtd">

<svg xmlns="http://www.w3.org/2000/svg"
     width="8.33333in" height="3.33333in"
     viewBox="0 0 2500 1000">
  <path id="Unnamed copy #2"
        fill="none" stroke="black" stroke-width="1"
        d="M -4.50,973.00
           C -4.50,973.00 2495.50,973.00 2495.50,973.00
             2495.50,973.00 2452.50,933.00 2296.50,927.00
             2140.50,921.00 2226.00,855.00 2127.00,861.00
             2028.00,867.00 1998.00,889.50 1839.00,859.50
             1680.00,829.50 1773.00,919.50 1683.00,924.00
             1593.00,928.50 1389.00,880.50 1260.00,889.50
             1202.76,893.49 1173.30,831.12 1066.50,841.50
             932.63,854.51 827.08,924.35 762.00,913.50
             645.00,894.00 667.50,841.50 544.50,840.00
             423.00,852.00 439.50,909.00 331.50,918.00
             223.50,927.00 201.00,871.50 124.50,858.00
             48.00,844.50 -4.50,973.00 -4.50,973.00 Z" />
</svg>
