<?xml version="1.0" encoding="UTF-8" standalone="no"?>
<!DOCTYPE svg PUBLIC "-//W3C//DTD SVG 20010904//EN"
              "http://www.w3.org/TR/2001/REC-SVG-20010904/DTD/svg10.dtd">

<svg xmlns="http://www.w3.org/2000/svg"
     width="8.33333in" height="3.33333in"
     viewBox="0 0 2500 1000">
  <path id="Unnamed"
        fill="none" stroke="black" stroke-width="1"
        d="M 0.00,1000.00
           C 0.00,1000.00 2500.00,1000.00 2500.00,1000.00
             2500.00,1000.00 2493.00,919.50 2337.00,913.50
             2181.00,907.50 2181.00,978.00 2056.50,957.00
             1932.00,936.00 1941.00,868.50 1791.00,862.50
             1641.00,856.50 1597.50,931.50 1507.50,936.00
             1417.50,940.50 1360.50,889.50 1231.50,898.50
             1102.50,907.50 1065.00,819.00 964.50,843.00
             864.00,867.00 877.50,921.00 756.00,933.00
             634.50,945.00 565.50,871.50 457.50,880.50
             349.50,889.50 327.00,933.00 183.00,927.00
             39.00,921.00 0.00,1000.00 0.00,1000.00 Z" />
</svg>
