<?xml version="1.0" encoding="UTF-8" standalone="no"?>
<!DOCTYPE svg PUBLIC "-//W3C//DTD SVG 20010904//EN"
              "http://www.w3.org/TR/2001/REC-SVG-20010904/DTD/svg10.dtd">

<svg xmlns="http://www.w3.org/2000/svg"
     width="8.33333in" height="3.33333in"
     viewBox="0 0 2500 1000">
  <path id="Unnamed"
        fill="none" stroke="black" stroke-width="1"
        d="M 0.00,181.00
           C 0.00,181.00 2500.00,181.00 2500.00,181.00
             2500.00,181.00 2493.00,100.50 2337.00,94.50
             2181.00,88.50 2181.00,159.00 2056.50,138.00
             1932.00,117.00 1941.00,49.50 1791.00,43.50
             1641.00,37.50 1597.50,112.50 1507.50,117.00
             1417.50,121.50 1360.50,70.50 1231.50,79.50
             1102.50,88.50 1065.00,0.00 964.50,24.00
             864.00,48.00 877.50,102.00 756.00,114.00
             634.50,126.00 565.50,52.50 457.50,61.50
             349.50,70.50 327.00,114.00 183.00,108.00
             39.00,102.00 0.00,181.00 0.00,181.00 Z" />
</svg>
