<?xml version="1.0" encoding="UTF-8" standalone="no"?>
<!DOCTYPE svg PUBLIC "-//W3C//DTD SVG 20010904//EN"
              "http://www.w3.org/TR/2001/REC-SVG-20010904/DTD/svg10.dtd">

<svg xmlns="http://www.w3.org/2000/svg"
     width="8.33333in" height="3.33333in"
     viewBox="0 0 2500 1000">
  <path id="Unnamed copy #1"
        fill="none" stroke="black" stroke-width="1"
        d="M 1.50,980.50
           C 1.50,980.50 2501.50,980.50 2501.50,980.50
             2501.50,980.50 2496.00,856.50 2340.00,850.50
             2184.00,844.50 2193.00,904.50 2094.00,910.50
             1995.00,916.50 2028.00,873.00 1869.00,843.00
             1710.00,813.00 1707.00,906.00 1617.00,910.50
             1527.00,915.00 1468.50,805.50 1339.50,814.50
             1210.50,823.50 1213.50,859.50 1096.50,840.00
             979.50,820.50 949.50,889.50 826.50,888.00
             705.00,900.00 589.50,832.50 481.50,841.50
             373.50,850.50 384.00,892.50 240.00,886.50
             96.00,880.50 1.50,980.50 1.50,980.50 Z" />
</svg>
